<svg width="30" height="30" viewBox="0 0 30 30" fill="none" xmlns="http://www.w3.org/2000/svg">
<path d="M8.87269 17.4231H0V30.0001H8.87269V17.4231Z" fill="#010002"/>
<path d="M30 14.1914H21.1273V30H30V14.1914Z" fill="#010002"/>
<path d="M19.4382 9.50171H10.563V30H19.4382V9.50171Z" fill="#010002"/>
<path d="M25.6319 4.6626L26.8884 7.35329L29.7026 7.7854L27.6685 9.87956L28.1474 12.838L25.6319 11.441L23.1164 12.838L23.5952 9.87956L21.5612 7.7854L24.3728 7.35323L25.6319 4.6626Z" fill="#010002"/>
<path d="M15.0483 0L16.3061 2.69208L19.1203 3.12425L17.0862 5.21973L17.5664 8.1754L15.0496 6.77978L12.5327 8.1754L13.0116 5.21973L10.9775 3.12425L13.7905 2.69208L15.0483 0Z" fill="#010002"/>
<path d="M4.28185 7.80029L5.53834 10.4924L8.35258 10.9259L6.31981 13.0186L6.7987 15.9757L4.28185 14.5801L1.765 15.9771L2.2452 13.02L0.211182 10.9272L3.02411 10.4937L4.28185 7.80029Z" fill="#010002"/>
</svg>
